<svg xmlns="http://www.w3.org/2000/svg" data-anchor="center" viewBox="0 0 10 8" width="40" height="32" shape-rendering="crispEdges" aria-hidden="true"><rect x="2" y="0" width="6" height="1" fill="#000000"/><rect x="1" y="1" width="1" height="1" fill="#000000"/><rect x="2" y="1" width="6" height="1" fill="#f80000"/><rect x="8" y="1" width="1" height="1" fill="#000000"/><rect x="0" y="2" width="1" height="1" fill="#000000"/><rect x="1" y="2" width="8" height="1" fill="#f80000"/><rect x="9" y="2" width="1" height="1" fill="#000000"/><rect x="0" y="3" width="1" height="1" fill="#000000"/><rect x="1" y="3" width="8" height="1" fill="#f80000"/><rect x="9" y="3" width="1" height="1" fill="#000000"/><rect x="0" y="4" width="1" height="1" fill="#000000"/><rect x="1" y="4" width="8" height="1" fill="#f80000"/><rect x="9" y="4" width="1" height="1" fill="#000000"/><rect x="0" y="5" width="1" height="1" fill="#000000"/><rect x="1" y="5" width="8" height="1" fill="#f80000"/><rect x="9" y="5" width="1" height="1" fill="#000000"/><rect x="1" y="6" width="1" height="1" fill="#000000"/><rect x="2" y="6" width="6" height="1" fill="#f80000"/><rect x="8" y="6" width="1" height="1" fill="#000000"/><rect x="2" y="7" width="6" height="1" fill="#000000"/></svg>
